# xmcd
#
# Track frame offsets: 
#        150
#        26863
#        40185
#        70215
#
# Disc length: 1284 seconds
#
# Revision: 0
# Processed by: cddbd v1.5.2PL0 Copyright (c) Steve Scherf et al.
# Submitted via: ExactAudioCopy v0.95b4
#
DISCID=31050204
DTITLE=Mika Nakashima - ALL HANDS TOGETHER
DYEAR=2006
DGENRE=JPop
TTITLE0=ALL HANDS TOGETHER
TTITLE1=WHAT A WONDERFUL WORLD
TTITLE2=ALL HANDS TOGETHER (COLDFEET Remix)
TTITLE3=ALL HANDS TOGETHER (Instrumental)
EXTD=
EXTT0=
EXTT1=
EXTT2=
EXTT3=
PLAYORDER=
